<?xml version="1.0" encoding="UTF-8"?>
<!DOCTYPE svg PUBLIC "-//W3C//DTD SVG 1.1//EN" "http://www.w3.org/Graphics/SVG/1.1/DTD/svg11.dtd">
<svg xmlns="http://www.w3.org/2000/svg" version="1.1" width="1920px" height="1920px" style="shape-rendering:geometricPrecision; text-rendering:geometricPrecision; image-rendering:optimizeQuality; fill-rule:evenodd; clip-rule:evenodd" xmlns:xlink="http://www.w3.org/1999/xlink">
<g><path style="opacity:1" fill="#000000" d="M 1010.5,460.5 C 1012.63,461.314 1014.96,461.814 1017.5,462C 1015.4,462.556 1015.24,463.056 1017,463.5C 1020.11,462.633 1023.27,462.299 1026.5,462.5C 1051.74,465.215 1076.41,470.215 1100.5,477.5C 1102.44,479.163 1104.77,479.829 1107.5,479.5C 1140.85,489.172 1172.85,502.172 1203.5,518.5C 1203.82,520.048 1204.82,520.715 1206.5,520.5C 1213.67,524.251 1220.67,528.251 1227.5,532.5C 1229.36,534.377 1231.2,536.377 1233,538.5C 1233.67,537.748 1234.5,537.414 1235.5,537.5C 1239.88,539.684 1243.88,542.35 1247.5,545.5C 1247.97,546.906 1248.97,547.573 1250.5,547.5C 1255.13,550.143 1259.47,553.143 1263.5,556.5C 1263.94,558.074 1264.94,559.241 1266.5,560C 1265.33,560.419 1264.33,561.085 1263.5,562C 1265.96,563.617 1268.46,565.117 1271,566.5C 1273.35,563.957 1274.52,564.623 1274.5,568.5C 1276.5,568.833 1278.5,569.167 1280.5,569.5C 1281.45,571.112 1281.79,572.612 1281.5,574C 1283.18,573.229 1284.85,573.395 1286.5,574.5C 1287.17,574.5 1287.5,574.833 1287.5,575.5C 1287.97,576.906 1288.97,577.573 1290.5,577.5C 1290.42,578.75 1289.76,579.583 1288.5,580C 1291.49,580.468 1294.49,581.635 1297.5,583.5C 1299.17,584.5 1300.5,585.833 1301.5,587.5C 1302.58,589.587 1304.25,590.92 1306.5,591.5C 1308.88,593.215 1310.88,595.215 1312.5,597.5C 1313.91,599.914 1315.91,601.581 1318.5,602.5C 1323.11,608.776 1328.44,614.443 1334.5,619.5C 1336.17,620.5 1337.5,621.833 1338.5,623.5C 1340.43,627.1 1343.1,630.1 1346.5,632.5C 1347.5,632.833 1348.17,633.5 1348.5,634.5C 1349.08,636.749 1350.41,638.415 1352.5,639.5C 1353.5,639.833 1354.17,640.5 1354.5,641.5C 1354.74,643.404 1355.74,644.738 1357.5,645.5C 1358.5,645.833 1359.17,646.5 1359.5,647.5C 1359.74,649.404 1360.74,650.738 1362.5,651.5C 1365.18,654.19 1367.52,657.19 1369.5,660.5C 1369.74,662.404 1370.74,663.738 1372.5,664.5C 1374.26,665.262 1375.26,666.596 1375.5,668.5C 1375.74,670.404 1376.74,671.738 1378.5,672.5C 1378.43,674.027 1379.09,675.027 1380.5,675.5C 1380.74,677.404 1381.74,678.738 1383.5,679.5C 1383.62,681.575 1384.12,683.575 1385,685.5C 1386.14,685.619 1387.31,685.952 1388.5,686.5C 1389.67,687.514 1390.34,688.847 1390.5,690.5C 1103.17,691.833 815.833,691.833 528.5,690.5C 535.676,677.993 544.01,666.326 553.5,655.5C 554.906,655.027 555.573,654.027 555.5,652.5C 559.155,647.514 563.155,642.847 567.5,638.5C 569.587,637.415 570.92,635.749 571.5,633.5C 572.167,632.167 573.167,631.167 574.5,630.5C 577.243,628.761 579.243,626.427 580.5,623.5C 583.167,620.167 586.167,617.167 589.5,614.5C 594.5,610.167 599.167,605.5 603.5,600.5C 604.5,598.833 605.833,597.5 607.5,596.5C 610.764,594.906 613.431,592.573 615.5,589.5C 618.543,585.456 622.209,582.123 626.5,579.5C 628.749,578.92 630.415,577.587 631.5,575.5C 641.643,566.022 652.643,557.688 664.5,550.5C 666.792,551.468 668.959,551.802 671,551.5C 673.302,549.499 675.802,548.999 678.5,550C 678.5,548 678.5,546 678.5,544C 681.776,543.516 684.776,541.849 687.5,539C 686.316,537.855 686.316,536.688 687.5,535.5C 701.686,525.902 716.686,517.569 732.5,510.5C 735.249,510.274 737.916,510.607 740.5,511.5C 741.567,509.717 742.233,507.717 742.5,505.5C 743.209,504.596 744.209,504.263 745.5,504.5C 747.598,505.963 749.598,505.796 751.5,504C 751.167,503.667 750.833,503.333 750.5,503C 753.424,502.012 756.424,501.346 759.5,501C 757.381,500.658 757.047,499.825 758.5,498.5C 799.096,480.975 841.429,469.308 885.5,463.5C 893.717,463.14 901.717,462.14 909.5,460.5C 943.156,456.52 976.823,456.52 1010.5,460.5 Z"/></g>
<g><path style="opacity:0.992" fill="#3b3b3b" d="M 909.5,460.5 C 901.717,462.14 893.717,463.14 885.5,463.5C 893.263,461.696 901.263,460.696 909.5,460.5 Z"/></g>
<g><path style="opacity:1" fill="#434343" d="M 1010.5,460.5 C 1016.05,460.527 1021.38,461.194 1026.5,462.5C 1023.27,462.299 1020.11,462.633 1017,463.5C 1015.24,463.056 1015.4,462.556 1017.5,462C 1014.96,461.814 1012.63,461.314 1010.5,460.5 Z"/></g>
<g><path style="opacity:0.984" fill="#5a5a5a" d="M 1100.5,477.5 C 1103.07,477.721 1105.4,478.388 1107.5,479.5C 1104.77,479.829 1102.44,479.163 1100.5,477.5 Z"/></g>
<g><path style="opacity:0.992" fill="#2e2e2e" d="M 758.5,498.5 C 757.047,499.825 757.381,500.658 759.5,501C 756.424,501.346 753.424,502.012 750.5,503C 750.833,503.333 751.167,503.667 751.5,504C 749.598,505.796 747.598,505.963 745.5,504.5C 749.416,501.743 753.75,499.743 758.5,498.5 Z"/></g>
<g><path style="opacity:0.999" fill="#2c2c2c" d="M 742.5,505.5 C 742.233,507.717 741.567,509.717 740.5,511.5C 737.916,510.607 735.249,510.274 732.5,510.5C 735.515,508.326 738.849,506.659 742.5,505.5 Z"/></g>
<g><path style="opacity:0.827" fill="#8f8f8f" d="M 1203.5,518.5 C 1204.71,518.932 1205.71,519.599 1206.5,520.5C 1204.82,520.715 1203.82,520.048 1203.5,518.5 Z"/></g>
<g><path style="opacity:0.953" fill="#696969" d="M 1227.5,532.5 C 1230.54,533.68 1233.21,535.347 1235.5,537.5C 1234.5,537.414 1233.67,537.748 1233,538.5C 1231.2,536.377 1229.36,534.377 1227.5,532.5 Z"/></g>
<g><path style="opacity:0.993" fill="#1b1b1b" d="M 687.5,535.5 C 686.316,536.688 686.316,537.855 687.5,539C 684.776,541.849 681.776,543.516 678.5,544C 678.5,546 678.5,548 678.5,550C 675.802,548.999 673.302,549.499 671,551.5C 668.959,551.802 666.792,551.468 664.5,550.5C 671.646,544.756 679.313,539.756 687.5,535.5 Z"/></g>
<g><path style="opacity:0.031" fill="#b1b1b1" d="M 1247.5,545.5 C 1249.03,545.427 1250.03,546.094 1250.5,547.5C 1248.97,547.573 1247.97,546.906 1247.5,545.5 Z"/></g>
<g><path style="opacity:0.999" fill="#353535" d="M 1263.5,556.5 C 1269.48,560.481 1275.14,564.814 1280.5,569.5C 1278.5,569.167 1276.5,568.833 1274.5,568.5C 1274.52,564.623 1273.35,563.957 1271,566.5C 1268.46,565.117 1265.96,563.617 1263.5,562C 1264.33,561.085 1265.33,560.419 1266.5,560C 1264.94,559.241 1263.94,558.074 1263.5,556.5 Z"/></g>
<g><path style="opacity:1" fill="#454545" d="M 1280.5,569.5 C 1283.11,570.443 1285.11,572.11 1286.5,574.5C 1284.85,573.395 1283.18,573.229 1281.5,574C 1281.79,572.612 1281.45,571.112 1280.5,569.5 Z"/></g>
<g><path style="opacity:0.016" fill="#b3b3b3" d="M 1287.5,575.5 C 1289.03,575.427 1290.03,576.094 1290.5,577.5C 1288.97,577.573 1287.97,576.906 1287.5,575.5 Z"/></g>
<g><path style="opacity:0.58" fill="#767676" d="M 631.5,575.5 C 630.415,577.587 628.749,578.92 626.5,579.5C 627.585,577.413 629.251,576.08 631.5,575.5 Z"/></g>
<g><path style="opacity:1" fill="#4b4b4b" d="M 1290.5,577.5 C 1293.06,579.273 1295.39,581.273 1297.5,583.5C 1294.49,581.635 1291.49,580.468 1288.5,580C 1289.76,579.583 1290.42,578.75 1290.5,577.5 Z"/></g>
<g><path style="opacity:0.016" fill="#adadad" d="M 1301.5,587.5 C 1303.75,588.08 1305.42,589.413 1306.5,591.5C 1304.25,590.92 1302.58,589.587 1301.5,587.5 Z"/></g>
<g><path style="opacity:0.494" fill="#656565" d="M 615.5,589.5 C 613.431,592.573 610.764,594.906 607.5,596.5C 609.569,593.427 612.236,591.094 615.5,589.5 Z"/></g>
<g><path style="opacity:0.004" fill="#bebebe" d="M 1312.5,597.5 C 1315.09,598.419 1317.09,600.086 1318.5,602.5C 1315.91,601.581 1313.91,599.914 1312.5,597.5 Z"/></g>
<g><path style="opacity:0.349" fill="#9c9c9c" d="M 1318.5,602.5 C 1324.56,607.557 1329.89,613.224 1334.5,619.5C 1328.44,614.443 1323.11,608.776 1318.5,602.5 Z"/></g>
<g><path style="opacity:0.345" fill="#8f8f8f" d="M 603.5,600.5 C 599.167,605.5 594.5,610.167 589.5,614.5C 593.167,608.833 597.833,604.167 603.5,600.5 Z"/></g>
<g><path style="opacity:0.608" fill="#838383" d="M 1338.5,623.5 C 1341.9,625.9 1344.57,628.9 1346.5,632.5C 1343.1,630.1 1340.43,627.1 1338.5,623.5 Z"/></g>
<g><path style="opacity:0.459" fill="#787878" d="M 580.5,623.5 C 579.243,626.427 577.243,628.761 574.5,630.5C 575.757,627.573 577.757,625.239 580.5,623.5 Z"/></g>
<g><path style="opacity:0.486" fill="#868686" d="M 1348.5,634.5 C 1350.59,635.585 1351.92,637.251 1352.5,639.5C 1350.41,638.415 1349.08,636.749 1348.5,634.5 Z"/></g>
<g><path style="opacity:0.38" fill="#8a8a8a" d="M 571.5,633.5 C 570.92,635.749 569.587,637.415 567.5,638.5C 568.08,636.251 569.413,634.585 571.5,633.5 Z"/></g>
<g><path style="opacity:0.514" fill="#7c7c7c" d="M 1354.5,641.5 C 1356.26,642.262 1357.26,643.596 1357.5,645.5C 1355.74,644.738 1354.74,643.404 1354.5,641.5 Z"/></g>
<g><path style="opacity:0.486" fill="#9b9b9b" d="M 1359.5,647.5 C 1361.26,648.262 1362.26,649.596 1362.5,651.5C 1360.74,650.738 1359.74,649.404 1359.5,647.5 Z"/></g>
<g><path style="opacity:0.318" fill="#868686" d="M 555.5,652.5 C 555.573,654.027 554.906,655.027 553.5,655.5C 553.427,653.973 554.094,652.973 555.5,652.5 Z"/></g>
<g><path style="opacity:0.604" fill="#767676" d="M 1369.5,660.5 C 1371.26,661.262 1372.26,662.596 1372.5,664.5C 1370.74,663.738 1369.74,662.404 1369.5,660.5 Z"/></g>
<g><path style="opacity:0.333" fill="#8c8c8c" d="M 1375.5,668.5 C 1377.26,669.262 1378.26,670.596 1378.5,672.5C 1376.74,671.738 1375.74,670.404 1375.5,668.5 Z"/></g>
<g><path style="opacity:0.31" fill="#808080" d="M 1378.5,672.5 C 1379.91,672.973 1380.57,673.973 1380.5,675.5C 1379.09,675.027 1378.43,674.027 1378.5,672.5 Z"/></g>
<g><path style="opacity:0.435" fill="#7f7f7f" d="M 1380.5,675.5 C 1382.26,676.262 1383.26,677.596 1383.5,679.5C 1381.74,678.738 1380.74,677.404 1380.5,675.5 Z"/></g>
<g><path style="opacity:0.831" fill="#4b4b4b" d="M 1383.5,679.5 C 1385.41,681.649 1387.08,683.982 1388.5,686.5C 1387.31,685.952 1386.14,685.619 1385,685.5C 1384.12,683.575 1383.62,681.575 1383.5,679.5 Z"/></g>
<g><path style="opacity:0.33" fill="#7a7a7a" d="M 528.5,690.5 C 815.833,691.833 1103.17,691.833 1390.5,690.5C 1391.04,690.56 1391.38,690.893 1391.5,691.5C 1103.5,692.833 815.5,692.833 527.5,691.5C 527.624,690.893 527.957,690.56 528.5,690.5 Z"/></g>
<g><path style="opacity:0.997" fill="#0f0f0f" d="M 1409.5,721.5 C 1408.71,721.217 1408.04,720.717 1407.5,720C 1108.83,719.5 810.167,719.333 511.5,719.5C 511.771,721.821 511.104,723.821 509.5,725.5C 509.709,726.086 510.043,726.586 510.5,727C 509.256,727.456 508.423,726.956 508,725.5C 507.764,727.119 506.931,728.119 505.5,728.5C 506.504,724.992 508.171,721.826 510.5,719C 809.833,718.333 1109.17,718.333 1408.5,719C 1409.25,719.671 1409.59,720.504 1409.5,721.5 Z"/></g>
<g><path style="opacity:1" fill="#000000" d="M 1409.5,721.5 C 1410.11,723.434 1411.11,725.101 1412.5,726.5C 1416.26,731.684 1419.26,737.35 1421.5,743.5C 1421.43,745.027 1422.09,746.027 1423.5,746.5C 1424.44,748.05 1425.11,749.716 1425.5,751.5C 1425.02,754.313 1426.02,756.313 1428.5,757.5C 1428.17,760.491 1429.17,762.824 1431.5,764.5C 1432.11,765.391 1432.44,766.391 1432.5,767.5C 1432.43,769.027 1433.09,770.027 1434.5,770.5C 1436.2,773.939 1437.54,777.605 1438.5,781.5C 1438.66,783.153 1439.33,784.486 1440.5,785.5C 1440.12,787.698 1440.79,789.365 1442.5,790.5C 1443.51,793.252 1444.51,795.919 1445.5,798.5C 1445.17,801.228 1445.84,803.562 1447.5,805.5C 1448.97,809.031 1450.31,812.698 1451.5,816.5C 1451.5,817.5 1451.5,818.5 1451.5,819.5C 1123.5,819.833 795.499,819.5 467.5,818.5C 468.946,816.382 469.613,814.049 469.5,811.5C 470.015,809.106 470.681,806.772 471.5,804.5C 473.655,802.383 474.655,799.716 474.5,796.5C 475.99,792.018 477.657,787.684 479.5,783.5C 480.674,782.486 481.34,781.153 481.5,779.5C 481.875,777.302 482.542,775.302 483.5,773.5C 485.834,771.824 486.834,769.491 486.5,766.5C 489.302,758.898 492.635,751.565 496.5,744.5C 497.906,744.027 498.573,743.027 498.5,741.5C 500.072,736.685 502.405,732.352 505.5,728.5C 506.931,728.119 507.764,727.119 508,725.5C 508.423,726.956 509.256,727.456 510.5,727C 510.043,726.586 509.709,726.086 509.5,725.5C 511.104,723.821 511.771,721.821 511.5,719.5C 810.167,719.333 1108.83,719.5 1407.5,720C 1408.04,720.717 1408.71,721.217 1409.5,721.5 Z"/></g>
<g><path style="opacity:0.078" fill="#909090" d="M 1409.5,721.5 C 1411.73,722.401 1412.73,724.067 1412.5,726.5C 1411.11,725.101 1410.11,723.434 1409.5,721.5 Z"/></g>
<g><path style="opacity:0.043" fill="#cbcbcb" d="M 498.5,741.5 C 498.573,743.027 497.906,744.027 496.5,744.5C 496.427,742.973 497.094,741.973 498.5,741.5 Z"/></g>
<g><path style="opacity:0.047" fill="#cbcbcb" d="M 1421.5,743.5 C 1422.91,743.973 1423.57,744.973 1423.5,746.5C 1422.09,746.027 1421.43,745.027 1421.5,743.5 Z"/></g>
<g><path style="opacity:0.639" fill="#626262" d="M 1425.5,751.5 C 1426.49,753.456 1427.49,755.456 1428.5,757.5C 1426.02,756.313 1425.02,754.313 1425.5,751.5 Z"/></g>
<g><path style="opacity:0.71" fill="#757575" d="M 1428.5,757.5 C 1430.07,759.509 1431.07,761.843 1431.5,764.5C 1429.17,762.824 1428.17,760.491 1428.5,757.5 Z"/></g>
<g><path style="opacity:0.886" fill="#737373" d="M 486.5,766.5 C 486.834,769.491 485.834,771.824 483.5,773.5C 483.935,770.843 484.935,768.509 486.5,766.5 Z"/></g>
<g><path style="opacity:0.016" fill="#b0b0b0" d="M 1432.5,767.5 C 1433.91,767.973 1434.57,768.973 1434.5,770.5C 1433.09,770.027 1432.43,769.027 1432.5,767.5 Z"/></g>
<g><path style="opacity:0.02" fill="#ababab" d="M 481.5,779.5 C 481.34,781.153 480.674,782.486 479.5,783.5C 479.229,781.62 479.896,780.287 481.5,779.5 Z"/></g>
<g><path style="opacity:0.02" fill="#c7c7c7" d="M 1438.5,781.5 C 1440.1,782.287 1440.77,783.62 1440.5,785.5C 1439.33,784.486 1438.66,783.153 1438.5,781.5 Z"/></g>
<g><path style="opacity:0.31" fill="#8c8c8c" d="M 1440.5,785.5 C 1441.54,786.93 1442.2,788.597 1442.5,790.5C 1440.79,789.365 1440.12,787.698 1440.5,785.5 Z"/></g>
<g><path style="opacity:0.455" fill="#7b7b7b" d="M 474.5,796.5 C 474.655,799.716 473.655,802.383 471.5,804.5C 472.129,801.603 473.129,798.936 474.5,796.5 Z"/></g>
<g><path style="opacity:0.737" fill="#868686" d="M 1445.5,798.5 C 1446.92,800.515 1447.59,802.848 1447.5,805.5C 1445.84,803.562 1445.17,801.228 1445.5,798.5 Z"/></g>
<g><path style="opacity:0.573" fill="#5c5c5c" d="M 469.5,811.5 C 469.613,814.049 468.946,816.382 467.5,818.5C 795.499,819.5 1123.5,819.833 1451.5,819.5C 1451.5,818.5 1451.5,817.5 1451.5,816.5C 1452.43,817.568 1452.77,818.901 1452.5,820.5C 1123.83,820.5 795.167,820.5 466.5,820.5C 466.528,817.084 467.528,814.084 469.5,811.5 Z"/></g>
<g><path style="opacity:1" fill="#010101" d="M 1462.5,857.5 C 1462.57,860.428 1463.23,863.095 1464.5,865.5C 1466.02,871.621 1467.02,877.954 1467.5,884.5C 1467.8,886.403 1468.46,888.07 1469.5,889.5C 1471.5,904.504 1473.17,919.504 1474.5,934.5C 1474.5,938.833 1474.5,943.167 1474.5,947.5C 1131.17,947.5 787.833,947.5 444.5,947.5C 444.5,943.833 444.5,940.167 444.5,936.5C 444.5,936.167 444.5,935.833 444.5,935.5C 445.4,930.668 446.066,925.668 446.5,920.5C 447.133,901.774 449.8,883.441 454.5,865.5C 456.04,863.162 456.706,860.495 456.5,857.5C 791.833,856.167 1127.17,856.167 1462.5,857.5 Z"/></g>
<g><path style="opacity:0.125" fill="#a8a8a8" d="M 1462.5,857.5 C 1464.04,859.838 1464.71,862.505 1464.5,865.5C 1463.23,863.095 1462.57,860.428 1462.5,857.5 Z"/></g>
<g><path style="opacity:0.208" fill="#9a9a9a" d="M 456.5,857.5 C 456.706,860.495 456.04,863.162 454.5,865.5C 454.565,862.572 455.232,859.905 456.5,857.5 Z"/></g>
<g><path style="opacity:0.013" fill="#dddddd" d="M 1467.5,884.5 C 1469.21,885.635 1469.88,887.302 1469.5,889.5C 1468.46,888.07 1467.8,886.403 1467.5,884.5 Z"/></g>
<g><path style="opacity:0.031" fill="#bbbbbb" d="M 446.5,920.5 C 446.066,925.668 445.4,930.668 444.5,935.5C 444.334,931.154 444.501,926.821 445,922.5C 445.278,921.584 445.778,920.918 446.5,920.5 Z"/></g>
<g><path style="opacity:0.983" fill="#3e3e3e" d="M 1474.5,934.5 C 1475.49,938.97 1475.82,943.637 1475.5,948.5C 1131.5,948.5 787.5,948.5 443.5,948.5C 443.183,944.298 443.517,940.298 444.5,936.5C 444.5,940.167 444.5,943.833 444.5,947.5C 787.833,947.5 1131.17,947.5 1474.5,947.5C 1474.5,943.167 1474.5,938.833 1474.5,934.5 Z"/></g>
<g><path style="opacity:1" fill="#010101" d="M 1474.5,995.5 C 1474.39,1002.18 1474.05,1008.85 1473.5,1015.5C 1473.3,1029.09 1471.96,1042.42 1469.5,1055.5C 1468.47,1057.96 1467.8,1060.63 1467.5,1063.5C 1467.42,1067.79 1466.76,1071.96 1465.5,1076C 1128.17,1076.83 790.833,1076.67 453.5,1075.5C 452.626,1073.25 452.292,1070.92 452.5,1068.5C 452.59,1065.85 451.924,1063.51 450.5,1061.5C 448.157,1050.09 446.824,1038.42 446.5,1026.5C 446.125,1020.99 445.458,1015.66 444.5,1010.5C 443.555,1005.59 443.221,1000.59 443.5,995.5C 787.167,995.5 1130.83,995.5 1474.5,995.5 Z"/></g>
<g><path style="opacity:0.365" fill="#8d8d8d" d="M 1474.5,995.5 C 1475.65,1001.65 1475.82,1007.99 1475,1014.5C 1474.62,1015.06 1474.12,1015.39 1473.5,1015.5C 1474.05,1008.85 1474.39,1002.18 1474.5,995.5 Z"/></g>
<g><path style="opacity:0.031" fill="#a7a7a7" d="M 444.5,1010.5 C 445.458,1015.66 446.125,1020.99 446.5,1026.5C 445.778,1026.08 445.278,1025.42 445,1024.5C 444.501,1019.85 444.334,1015.18 444.5,1010.5 Z"/></g>
<g><path style="opacity:0.02" fill="#b8b8b8" d="M 1469.5,1055.5 C 1469.66,1057.86 1469.5,1060.19 1469,1062.5C 1468.62,1063.06 1468.12,1063.39 1467.5,1063.5C 1467.8,1060.63 1468.47,1057.96 1469.5,1055.5 Z"/></g>
<g><path style="opacity:0.62" fill="#888888" d="M 450.5,1061.5 C 451.924,1063.51 452.59,1065.85 452.5,1068.5C 451.883,1068.39 451.383,1068.06 451,1067.5C 450.505,1065.53 450.338,1063.53 450.5,1061.5 Z"/></g>
<g><path style="opacity:0.819" fill="#464646" d="M 1449.5,1136.5 C 1286.5,1135.17 1123.17,1134.5 959.5,1134.5C 796,1134.5 632.666,1134.83 469.5,1135.5C 468.957,1135.44 468.624,1135.11 468.5,1134.5C 795.833,1133.5 1123.17,1133.17 1450.5,1133.5C 1450.74,1134.79 1450.4,1135.79 1449.5,1136.5 Z"/></g>
<g><path style="opacity:1" fill="#030303" d="M 1449.5,1136.5 C 1449.28,1139.07 1448.61,1141.4 1447.5,1143.5C 1445.8,1146.26 1444.46,1149.26 1443.5,1152.5C 1442.74,1156.78 1441.41,1160.78 1439.5,1164.5C 1437.6,1166.7 1436.6,1169.36 1436.5,1172.5C 1435.01,1176.32 1433.34,1179.99 1431.5,1183.5C 1429.66,1185.85 1428.33,1188.52 1427.5,1191.5C 1426.54,1194.74 1425.2,1197.74 1423.5,1200.5C 1422.33,1201.51 1421.66,1202.85 1421.5,1204.5C 1248.47,1204.62 1075.13,1204.95 901.5,1205.5C 766.496,1205.62 631.496,1204.95 496.5,1203.5C 494.412,1198.33 492.079,1193.33 489.5,1188.5C 489.33,1187.18 489.663,1186.01 490.5,1185C 489.473,1184.49 488.473,1183.99 487.5,1183.5C 485.795,1180.74 484.462,1177.74 483.5,1174.5C 483.598,1172.45 482.931,1170.78 481.5,1169.5C 479.065,1165.2 477.398,1160.53 476.5,1155.5C 475.679,1151.87 474.346,1148.54 472.5,1145.5C 470.723,1142.5 469.723,1139.16 469.5,1135.5C 632.666,1134.83 796,1134.5 959.5,1134.5C 1123.17,1134.5 1286.5,1135.17 1449.5,1136.5 Z"/></g>
<g><path style="opacity:0.063" fill="#b0b0b0" d="M 1447.5,1143.5 C 1447.29,1147.18 1445.96,1150.18 1443.5,1152.5C 1444.46,1149.26 1445.8,1146.26 1447.5,1143.5 Z"/></g>
<g><path style="opacity:0.063" fill="#9b9b9b" d="M 472.5,1145.5 C 474.346,1148.54 475.679,1151.87 476.5,1155.5C 474.103,1152.69 472.77,1149.36 472.5,1145.5 Z"/></g>
<g><path style="opacity:0.004" fill="#b4b4b4" d="M 1439.5,1164.5 C 1439.27,1167.54 1438.27,1170.21 1436.5,1172.5C 1436.6,1169.36 1437.6,1166.7 1439.5,1164.5 Z"/></g>
<g><path style="opacity:0.02" fill="#acacac" d="M 481.5,1169.5 C 482.931,1170.78 483.598,1172.45 483.5,1174.5C 482.069,1173.22 481.402,1171.55 481.5,1169.5 Z"/></g>
<g><path style="opacity:1" fill="#6e6e6e" d="M 487.5,1183.5 C 488.473,1183.99 489.473,1184.49 490.5,1185C 489.663,1186.01 489.33,1187.18 489.5,1188.5C 488.069,1187.22 487.402,1185.55 487.5,1183.5 Z"/></g>
<g><path style="opacity:0.008" fill="#8e8e8e" d="M 1431.5,1183.5 C 1431.21,1186.75 1429.87,1189.42 1427.5,1191.5C 1428.33,1188.52 1429.66,1185.85 1431.5,1183.5 Z"/></g>
<g><path style="opacity:0.035" fill="#a3a3a3" d="M 1423.5,1200.5 C 1423.77,1202.38 1423.1,1203.71 1421.5,1204.5C 1421.66,1202.85 1422.33,1201.51 1423.5,1200.5 Z"/></g>
<g><path style="opacity:0.992" fill="#3b3b3b" d="M 1377.5,1276.5 C 1377.28,1273.9 1376.78,1273.9 1376,1276.5C 1375.52,1275.55 1375.35,1274.55 1375.5,1273.5C 1098.17,1273.5 820.833,1273.5 543.5,1273.5C 543.371,1275.22 543.038,1276.88 542.5,1278.5C 541.31,1276.65 539.977,1274.81 538.5,1273C 539.5,1272.67 540.5,1272.33 541.5,1272C 820.833,1271.33 1100.17,1271.33 1379.5,1272C 1380.17,1273.86 1379.5,1275.36 1377.5,1276.5 Z"/></g>
<g><path style="opacity:1" fill="#030303" d="M 1377.5,1276.5 C 1377.67,1277.49 1377.34,1278.16 1376.5,1278.5C 1375.09,1278.97 1374.43,1279.97 1374.5,1281.5C 1372.82,1283.54 1371.16,1285.54 1369.5,1287.5C 1368.5,1287.83 1367.83,1288.5 1367.5,1289.5C 1366.88,1289.39 1366.38,1289.06 1366,1288.5C 1365.37,1289.87 1364.7,1291.21 1364,1292.5C 1363.23,1292.36 1362.56,1292.02 1362,1291.5C 1361.62,1293.2 1361.78,1294.86 1362.5,1296.5C 1360.88,1299.78 1358.55,1302.45 1355.5,1304.5C 1354.26,1303.59 1352.93,1303.42 1351.5,1304C 1351.83,1304.33 1352.17,1304.67 1352.5,1305C 1350.53,1307.49 1348.69,1307.66 1347,1305.5C 1346.82,1307.49 1346.99,1309.49 1347.5,1311.5C 1344.4,1311.41 1344.07,1311.91 1346.5,1313C 1345.66,1314.01 1345.33,1315.18 1345.5,1316.5C 1342.98,1320.18 1339.98,1323.51 1336.5,1326.5C 1335.17,1327.17 1334.17,1328.17 1333.5,1329.5C 1332.71,1330.79 1331.71,1331.96 1330.5,1333C 1083.17,1333.67 835.833,1333.67 588.5,1333C 587.619,1332.29 586.953,1331.46 586.5,1330.5C 585.738,1328.74 584.404,1327.74 582.5,1327.5C 580.833,1325.5 579.167,1323.5 577.5,1321.5C 577.512,1318.86 576.179,1317.52 573.5,1317.5C 571.833,1315.5 570.167,1313.5 568.5,1311.5C 568.461,1310.42 568.127,1309.42 567.5,1308.5C 568.167,1308.17 568.833,1307.83 569.5,1307.5C 567.827,1305.91 565.827,1305.25 563.5,1305.5C 559.849,1301.84 556.516,1297.84 553.5,1293.5C 553.573,1291.97 552.906,1290.97 551.5,1290.5C 551.573,1288.97 550.906,1287.97 549.5,1287.5C 547.844,1285.54 546.177,1283.54 544.5,1281.5C 544.573,1279.97 543.906,1278.97 542.5,1278.5C 543.038,1276.88 543.371,1275.22 543.5,1273.5C 820.833,1273.5 1098.17,1273.5 1375.5,1273.5C 1375.35,1274.55 1375.52,1275.55 1376,1276.5C 1376.78,1273.9 1377.28,1273.9 1377.5,1276.5 Z"/></g>
<g><path style="opacity:0.004" fill="#c8c8c8" d="M 542.5,1278.5 C 543.906,1278.97 544.573,1279.97 544.5,1281.5C 543.094,1281.03 542.427,1280.03 542.5,1278.5 Z"/></g>
<g><path style="opacity:0.031" fill="#c4c4c4" d="M 1376.5,1278.5 C 1376.57,1280.03 1375.91,1281.03 1374.5,1281.5C 1374.43,1279.97 1375.09,1278.97 1376.5,1278.5 Z"/></g>
<g><path style="opacity:0.02" fill="#a9a9a9" d="M 1369.5,1287.5 C 1369.57,1289.03 1368.91,1290.03 1367.5,1290.5C 1367.5,1290.17 1367.5,1289.83 1367.5,1289.5C 1367.83,1288.5 1368.5,1287.83 1369.5,1287.5 Z"/></g>
<g><path style="opacity:0.063" fill="#b9b9b9" d="M 549.5,1287.5 C 550.906,1287.97 551.573,1288.97 551.5,1290.5C 550.094,1290.03 549.427,1289.03 549.5,1287.5 Z"/></g>
<g><path style="opacity:0.004" fill="#d9d9d9" d="M 551.5,1290.5 C 552.906,1290.97 553.573,1291.97 553.5,1293.5C 552.094,1293.03 551.427,1292.03 551.5,1290.5 Z"/></g>
<g><path style="opacity:0.978" fill="#3c3c3c" d="M 1367.5,1289.5 C 1367.5,1289.83 1367.5,1290.17 1367.5,1290.5C 1366.18,1292.82 1364.51,1294.82 1362.5,1296.5C 1361.78,1294.86 1361.62,1293.2 1362,1291.5C 1362.56,1292.02 1363.23,1292.36 1364,1292.5C 1364.7,1291.21 1365.37,1289.87 1366,1288.5C 1366.38,1289.06 1366.88,1289.39 1367.5,1289.5 Z"/></g>
<g><path style="opacity:0.974" fill="#3f3f3f" d="M 563.5,1305.5 C 565.827,1305.25 567.827,1305.91 569.5,1307.5C 568.833,1307.83 568.167,1308.17 567.5,1308.5C 568.127,1309.42 568.461,1310.42 568.5,1311.5C 566.844,1309.54 565.177,1307.54 563.5,1305.5 Z"/></g>
<g><path style="opacity:1" fill="#242424" d="M 1355.5,1304.5 C 1353.26,1309.41 1349.93,1313.41 1345.5,1316.5C 1345.33,1315.18 1345.66,1314.01 1346.5,1313C 1344.07,1311.91 1344.4,1311.41 1347.5,1311.5C 1346.99,1309.49 1346.82,1307.49 1347,1305.5C 1348.69,1307.66 1350.53,1307.49 1352.5,1305C 1352.17,1304.67 1351.83,1304.33 1351.5,1304C 1352.93,1303.42 1354.26,1303.59 1355.5,1304.5 Z"/></g>
<g><path style="opacity:0.992" fill="#5e5e5e" d="M 573.5,1317.5 C 576.179,1317.52 577.512,1318.86 577.5,1321.5C 575.833,1320.5 574.5,1319.17 573.5,1317.5 Z"/></g>
<g><path style="opacity:0.129" fill="#b6b6b6" d="M 582.5,1327.5 C 584.404,1327.74 585.738,1328.74 586.5,1330.5C 584.596,1330.26 583.262,1329.26 582.5,1327.5 Z"/></g>
<g><path style="opacity:0.004" fill="#cccccc" d="M 1336.5,1326.5 C 1336.5,1328.5 1335.5,1329.5 1333.5,1329.5C 1334.17,1328.17 1335.17,1327.17 1336.5,1326.5 Z"/></g>
<g><path style="opacity:0.973" fill="#3d3d3d" d="M 1225.5,1416.5 C 1225.56,1414.41 1226.56,1412.91 1228.5,1412C 1048.17,1411.33 867.833,1411.33 687.5,1412C 688.056,1412.38 688.389,1412.88 688.5,1413.5C 686.804,1413.31 685.471,1412.48 684.5,1411C 867.833,1410.33 1051.17,1410.33 1234.5,1411C 1231.78,1413.36 1228.78,1415.19 1225.5,1416.5 Z"/></g>
<g><path style="opacity:1" fill="#040404" d="M 1225.5,1416.5 C 1223.34,1418.08 1221,1419.42 1218.5,1420.5C 1213.62,1420.23 1209.62,1421.9 1206.5,1425.5C 1204.18,1426.06 1201.85,1426.56 1199.5,1427C 1201.37,1427.95 1201.71,1429.12 1200.5,1430.5C 1178.27,1442.3 1155.27,1452.47 1131.5,1461C 1016.83,1461.67 902.167,1461.67 787.5,1461C 752.584,1448.87 719.584,1433.04 688.5,1413.5C 688.389,1412.88 688.056,1412.38 687.5,1412C 867.833,1411.33 1048.17,1411.33 1228.5,1412C 1226.56,1412.91 1225.56,1414.41 1225.5,1416.5 Z"/></g>
<g><path style="opacity:1" fill="#333333" d="M 1218.5,1420.5 C 1212.86,1424.32 1206.86,1427.66 1200.5,1430.5C 1201.71,1429.12 1201.37,1427.95 1199.5,1427C 1201.85,1426.56 1204.18,1426.06 1206.5,1425.5C 1209.62,1421.9 1213.62,1420.23 1218.5,1420.5 Z"/></g>
</svg>
